#define mem_width 8
#define mem_height 9
static unsigned char mem_bits[] = {
 0x01, 0x03, 0x07, 0x0F, 0x1F, 0x0F, 0x07, 0x03, 0x01 };
